<?xml version="1.0" encoding="UTF-8" standalone="no"?>
<!-- Created with Inkscape (http://www.inkscape.org/) -->

<svg
   width="700"
   height="150"
   viewBox="0 0 185.20833 39.6875"
   version="1.1"
   id="svg1"
   xml:space="preserve"
   inkscape:version="1.3 (0e150ed6c4, 2023-07-21)"
   sodipodi:docname="bg.svg"
   inkscape:export-filename="..\..\..\..\..\Users\luca\Desktop\bg.png"
   inkscape:export-xdpi="96"
   inkscape:export-ydpi="96"
   xmlns:inkscape="http://www.inkscape.org/namespaces/inkscape"
   xmlns:sodipodi="http://sodipodi.sourceforge.net/DTD/sodipodi-0.dtd"
   xmlns:xlink="http://www.w3.org/1999/xlink"
   xmlns="http://www.w3.org/2000/svg"
   xmlns:svg="http://www.w3.org/2000/svg"><sodipodi:namedview
     id="namedview1"
     pagecolor="#ffffff"
     bordercolor="#000000"
     borderopacity="0.25"
     inkscape:showpageshadow="2"
     inkscape:pageopacity="0.0"
     inkscape:pagecheckerboard="0"
     inkscape:deskcolor="#d1d1d1"
     inkscape:document-units="px"
     inkscape:zoom="2"
     inkscape:cx="310.5"
     inkscape:cy="87.75"
     inkscape:window-width="1920"
     inkscape:window-height="1027"
     inkscape:window-x="-8"
     inkscape:window-y="-8"
     inkscape:window-maximized="1"
     inkscape:current-layer="g13" /><defs
     id="defs1" /><g
     inkscape:label="Layer 1"
     inkscape:groupmode="layer"
     id="layer1"
     style="display:inline"><rect
       style="display:inline;fill:#1a1a1a;stroke-width:0.264583"
       id="rect2"
       width="51.59375"
       height="33.072918"
       x="133.61458"
       y="6.6145816"
       rx="1.3229166"
       ry="1.3229166"
       inkscape:label="traffic" /><rect
       style="display:inline;fill:#3d3d3d;stroke:none;stroke-width:0.254996;-inkscape-stroke:none"
       id="rect1"
       width="50.006248"
       height="6.0854168"
       x="134.40833"
       y="20.372917"
       rx="1.0583333"
       ry="1.0583333"
       inkscape:label="traffic highlighted" /><g
       id="g12"
       inkscape:label="g12"><rect
         style="font-variation-settings:normal;vector-effect:none;fill:#1a1a1a;fill-opacity:1;stroke-width:0.281351;stroke-linecap:butt;stroke-linejoin:miter;stroke-miterlimit:4;stroke-dasharray:none;stroke-dashoffset:0;stroke-opacity:1;-inkscape-stroke:none"
         id="rect3-2"
         width="38.893749"
         height="7.9375"
         x="93.397911"
         y="31.75"
         rx="1.4959135"
         ry="1.3229166"
         inkscape:label="bottomright" /><rect
         style="font-variation-settings:normal;vector-effect:none;fill:#1a1a1a;fill-opacity:1;stroke-width:0.282306;stroke-linecap:butt;stroke-linejoin:miter;stroke-miterlimit:4;stroke-dasharray:none;stroke-dashoffset:0;stroke-opacity:1;-inkscape-stroke:none"
         id="rect3-0-4"
         width="39.158333"
         height="7.9375"
         x="52.916668"
         y="31.75"
         rx="1.5060898"
         ry="1.3229166"
         inkscape:label="bottomleft" /><rect
         style="font-variation-settings:normal;display:inline;opacity:1;vector-effect:none;fill:#1a1a1a;fill-opacity:1;stroke-width:0.281351;stroke-linecap:butt;stroke-linejoin:miter;stroke-miterlimit:4;stroke-dasharray:none;stroke-dashoffset:0;stroke-opacity:1;-inkscape-stroke:none"
         id="rect3"
         width="38.893749"
         height="7.9375"
         x="93.397919"
         y="22.489584"
         rx="1.4959135"
         ry="1.3229166"
         inkscape:label="topright" /><rect
         style="font-variation-settings:normal;display:inline;vector-effect:none;fill:#1a1a1a;fill-opacity:1;stroke-width:0.282306;stroke-linecap:butt;stroke-linejoin:miter;stroke-miterlimit:4;stroke-dasharray:none;stroke-dashoffset:0;stroke-opacity:1;-inkscape-stroke:none"
         id="rect3-0"
         width="39.158333"
         height="7.9375"
         x="52.916668"
         y="22.489584"
         rx="1.5060898"
         ry="1.3229166"
         inkscape:label="topleft" /></g><rect
       style="display:inline;fill:#1a1a1a;stroke-width:0.264583"
       id="rect2-1-0"
       width="21.166666"
       height="33.072918"
       x="30.427082"
       y="6.6145816"
       rx="1.3229166"
       ry="1.3229166"
       inkscape:label="tyres" /><rect
       style="font-variation-settings:normal;display:inline;vector-effect:none;fill:#1a1a1a;fill-opacity:1;stroke-width:0.264583;stroke-linecap:butt;stroke-linejoin:miter;stroke-miterlimit:4;stroke-dasharray:none;stroke-dashoffset:0;stroke-opacity:1;-inkscape-stroke:none;stop-color:#000000"
       id="rect2-1"
       width="29.104166"
       height="33.072918"
       x="0"
       y="6.6145816"
       rx="1.3229166"
       ry="1.3229166"
       inkscape:label="fuel" /><g
       id="g13"><path
         id="path17"
         style="display:inline;opacity:1;fill:#1a1a1a;stroke-width:0.265319"
         d="m 92.604166,0 c -1.572551,0.00305 -3.125371,0.043224 -4.662248,0.1198893 -1.536877,0.076665 -3.057849,0.1901684 -4.565613,0.3384806 -1.507763,0.1483122 -3.002889,0.3318452 -4.488098,0.5498373 -1.485208,0.2179921 -2.960492,0.4703211 -4.429703,0.7560262 -1.469212,0.2857049 -2.932206,0.6045632 -4.39198,0.956014 -1.459775,0.3514508 -2.916482,0.7356044 -4.373377,1.1508341 -1.456894,0.4152297 -2.913835,0.8618948 -4.37441,1.3389363 -1.460573,0.4770415 -2.924786,0.9839511 -4.395597,1.5208374 -1.022323,0.3731758 -1.785768,0.6743678 -2.354895,0.9441284 -0.284564,0.1348804 -0.519963,0.2618913 -0.715719,0.3865398 -0.195755,0.124648 -0.351632,0.246722 -0.474906,0.3715536 -0.123274,0.124831 -0.214,0.252661 -0.28112,0.38809 -0.06712,0.135429 -0.110166,0.278158 -0.137459,0.434599 -0.05459,0.31288 -0.03927,1.137915 -0.03927,1.137915 l -0.0031,6.804235 v 1.058334 c 0,0.732892 0.590025,1.322916 1.322917,1.322916 h 38.364583 v -2.38125 z"
         inkscape:label="main" /><use
         x="0"
         y="0"
         xlink:href="#path17"
         id="use18"
         transform="matrix(-1,0,0,1,185.20834,0)"
         style="display:inline" /><path
         id="path5"
         style="display:inline;opacity:1;fill:#3d3d3d;stroke-width:0.265319"
         d="m 92.604166,1.5875 c -1.572551,0.00305 -3.125371,0.043224 -4.662248,0.1198893 -1.536877,0.076665 -3.057849,0.1901684 -4.565613,0.3384806 -1.507763,0.1483122 -3.002889,0.3318452 -4.488098,0.5498373 -1.485208,0.2179921 -2.960492,0.4703211 -4.429703,0.7560262 -1.469212,0.2857049 -2.932206,0.6045632 -4.39198,0.956014 -1.459775,0.3514508 -2.916482,0.7356044 -4.373377,1.1508341 -1.456894,0.4152297 -2.913835,0.8618948 -4.37441,1.3389363 -1.460573,0.4770415 -2.924786,0.9839511 -4.395597,1.5208374 -1.022323,0.3731758 -1.785768,0.6743678 -2.354895,0.9441284 -0.284564,0.1348804 -0.519963,0.2618913 -0.715719,0.3865398 -0.195755,0.124648 -0.351632,0.246722 -0.474906,0.3715536 -0.123274,0.124831 -0.214,0.252661 -0.28112,0.38809 -0.06712,0.135429 -0.110166,0.278158 -0.137459,0.434599 -0.05459,0.31288 -0.03927,1.137915 -0.03927,1.137915 l -0.0031,6.804235 v 1.058334 c 0,0.732892 0.590025,1.322916 1.322917,1.322916 h 38.364583 v -2.38125 z"
         inkscape:label="path5" /><use
         x="0"
         y="0"
         xlink:href="#path5"
         id="use6"
         transform="matrix(-1,0,0,1,185.20832,-1.4285714e-8)"
         inkscape:label="use6"
         style="display:inline" /></g></g></svg>
